<?xml version="1.0" encoding="UTF-8" ?>
<svg version="1.1" width="334" height="498" xmlns="http://www.w3.org/2000/svg" shape-rendering="crispEdges">
<rect x="6" y="3" width="36" height="40" fill="#E8E8E8" />
<rect x="47" y="3" width="36" height="40" fill="#F2F2F2" />
<rect x="88" y="3" width="36" height="40" fill="#E8E8E8" />
<rect x="129" y="3" width="36" height="40" fill="#F2F2F2" />
<rect x="170" y="3" width="36" height="40" fill="#E8E8E8" />
<rect x="211" y="3" width="36" height="40" fill="#F2F2F2" />
<rect x="252" y="3" width="36" height="40" fill="#E8E8E8" />
<rect x="293" y="3" width="36" height="40" fill="#F2F2F2" />
<rect x="5" y="4" width="1" height="38" fill="#E8E8E8" />
<rect x="42" y="4" width="1" height="38" fill="#E8E8E8" />
<rect x="46" y="4" width="1" height="38" fill="#F2F2F2" />
<rect x="83" y="4" width="1" height="38" fill="#F2F2F2" />
<rect x="87" y="4" width="1" height="38" fill="#E8E8E8" />
<rect x="124" y="4" width="1" height="38" fill="#E8E8E8" />
<rect x="128" y="4" width="1" height="38" fill="#F2F2F2" />
<rect x="165" y="4" width="1" height="38" fill="#F2F2F2" />
<rect x="169" y="4" width="1" height="38" fill="#E8E8E8" />
<rect x="206" y="4" width="1" height="38" fill="#E8E8E8" />
<rect x="210" y="4" width="1" height="38" fill="#F2F2F2" />
<rect x="247" y="4" width="1" height="38" fill="#F2F2F2" />
<rect x="251" y="4" width="1" height="38" fill="#E8E8E8" />
<rect x="288" y="4" width="1" height="38" fill="#E8E8E8" />
<rect x="292" y="4" width="1" height="38" fill="#F2F2F2" />
<rect x="329" y="4" width="1" height="38" fill="#F2F2F2" />
<rect x="4" y="5" width="1" height="36" fill="#E8E8E8" />
<rect x="43" y="5" width="1" height="36" fill="#E8E8E8" />
<rect x="45" y="5" width="1" height="36" fill="#F2F2F2" />
<rect x="84" y="5" width="1" height="36" fill="#F2F2F2" />
<rect x="86" y="5" width="1" height="36" fill="#E8E8E8" />
<rect x="125" y="5" width="1" height="36" fill="#E8E8E8" />
<rect x="127" y="5" width="1" height="36" fill="#F2F2F2" />
<rect x="166" y="5" width="1" height="36" fill="#F2F2F2" />
<rect x="168" y="5" width="1" height="36" fill="#E8E8E8" />
<rect x="207" y="5" width="1" height="36" fill="#E8E8E8" />
<rect x="209" y="5" width="1" height="36" fill="#F2F2F2" />
<rect x="248" y="5" width="1" height="36" fill="#F2F2F2" />
<rect x="250" y="5" width="1" height="36" fill="#E8E8E8" />
<rect x="289" y="5" width="1" height="36" fill="#E8E8E8" />
<rect x="291" y="5" width="1" height="36" fill="#F2F2F2" />
<rect x="330" y="5" width="1" height="36" fill="#F2F2F2" />
<rect x="6" y="44" width="36" height="40" fill="#F2F2F2" />
<rect x="47" y="44" width="36" height="40" fill="#E8E8E8" />
<rect x="88" y="44" width="36" height="40" fill="#F2F2F2" />
<rect x="129" y="44" width="36" height="40" fill="#E8E8E8" />
<rect x="170" y="44" width="36" height="40" fill="#F2F2F2" />
<rect x="211" y="44" width="36" height="40" fill="#E8E8E8" />
<rect x="252" y="44" width="36" height="40" fill="#F2F2F2" />
<rect x="293" y="44" width="36" height="40" fill="#E8E8E8" />
<rect x="5" y="45" width="1" height="38" fill="#F2F2F2" />
<rect x="42" y="45" width="1" height="38" fill="#F2F2F2" />
<rect x="46" y="45" width="1" height="38" fill="#E8E8E8" />
<rect x="83" y="45" width="1" height="38" fill="#E8E8E8" />
<rect x="87" y="45" width="1" height="38" fill="#F2F2F2" />
<rect x="124" y="45" width="1" height="38" fill="#F2F2F2" />
<rect x="128" y="45" width="1" height="38" fill="#E8E8E8" />
<rect x="165" y="45" width="1" height="38" fill="#E8E8E8" />
<rect x="169" y="45" width="1" height="38" fill="#F2F2F2" />
<rect x="206" y="45" width="1" height="38" fill="#F2F2F2" />
<rect x="210" y="45" width="1" height="38" fill="#E8E8E8" />
<rect x="247" y="45" width="1" height="38" fill="#E8E8E8" />
<rect x="251" y="45" width="1" height="38" fill="#F2F2F2" />
<rect x="288" y="45" width="1" height="38" fill="#F2F2F2" />
<rect x="292" y="45" width="1" height="38" fill="#E8E8E8" />
<rect x="329" y="45" width="1" height="38" fill="#E8E8E8" />
<rect x="4" y="46" width="1" height="36" fill="#F2F2F2" />
<rect x="43" y="46" width="1" height="36" fill="#F2F2F2" />
<rect x="45" y="46" width="1" height="36" fill="#E8E8E8" />
<rect x="84" y="46" width="1" height="36" fill="#E8E8E8" />
<rect x="86" y="46" width="1" height="36" fill="#F2F2F2" />
<rect x="125" y="46" width="1" height="36" fill="#F2F2F2" />
<rect x="127" y="46" width="1" height="36" fill="#E8E8E8" />
<rect x="166" y="46" width="1" height="36" fill="#E8E8E8" />
<rect x="168" y="46" width="1" height="36" fill="#F2F2F2" />
<rect x="207" y="46" width="1" height="36" fill="#F2F2F2" />
<rect x="209" y="46" width="1" height="36" fill="#E8E8E8" />
<rect x="248" y="46" width="1" height="36" fill="#E8E8E8" />
<rect x="250" y="46" width="1" height="36" fill="#F2F2F2" />
<rect x="289" y="46" width="1" height="36" fill="#F2F2F2" />
<rect x="291" y="46" width="1" height="36" fill="#E8E8E8" />
<rect x="330" y="46" width="1" height="36" fill="#E8E8E8" />
<rect x="6" y="85" width="36" height="40" fill="#E8E8E8" />
<rect x="47" y="85" width="36" height="40" fill="#F2F2F2" />
<rect x="88" y="85" width="36" height="40" fill="#E8E8E8" />
<rect x="129" y="85" width="36" height="40" fill="#F2F2F2" />
<rect x="170" y="85" width="36" height="40" fill="#E8E8E8" />
<rect x="211" y="85" width="36" height="40" fill="#F2F2F2" />
<rect x="252" y="85" width="36" height="40" fill="#E8E8E8" />
<rect x="293" y="85" width="36" height="40" fill="#F2F2F2" />
<rect x="5" y="86" width="1" height="38" fill="#E8E8E8" />
<rect x="42" y="86" width="1" height="38" fill="#E8E8E8" />
<rect x="46" y="86" width="1" height="38" fill="#F2F2F2" />
<rect x="83" y="86" width="1" height="38" fill="#F2F2F2" />
<rect x="87" y="86" width="1" height="38" fill="#E8E8E8" />
<rect x="124" y="86" width="1" height="38" fill="#E8E8E8" />
<rect x="128" y="86" width="1" height="38" fill="#F2F2F2" />
<rect x="165" y="86" width="1" height="38" fill="#F2F2F2" />
<rect x="169" y="86" width="1" height="38" fill="#E8E8E8" />
<rect x="206" y="86" width="1" height="38" fill="#E8E8E8" />
<rect x="210" y="86" width="1" height="38" fill="#F2F2F2" />
<rect x="247" y="86" width="1" height="38" fill="#F2F2F2" />
<rect x="251" y="86" width="1" height="38" fill="#E8E8E8" />
<rect x="288" y="86" width="1" height="38" fill="#E8E8E8" />
<rect x="292" y="86" width="1" height="38" fill="#F2F2F2" />
<rect x="329" y="86" width="1" height="38" fill="#F2F2F2" />
<rect x="4" y="87" width="1" height="36" fill="#E8E8E8" />
<rect x="43" y="87" width="1" height="36" fill="#E8E8E8" />
<rect x="45" y="87" width="1" height="36" fill="#F2F2F2" />
<rect x="84" y="87" width="1" height="36" fill="#F2F2F2" />
<rect x="86" y="87" width="1" height="36" fill="#E8E8E8" />
<rect x="125" y="87" width="1" height="36" fill="#E8E8E8" />
<rect x="127" y="87" width="1" height="36" fill="#F2F2F2" />
<rect x="166" y="87" width="1" height="36" fill="#F2F2F2" />
<rect x="168" y="87" width="1" height="36" fill="#E8E8E8" />
<rect x="207" y="87" width="1" height="36" fill="#E8E8E8" />
<rect x="209" y="87" width="1" height="36" fill="#F2F2F2" />
<rect x="248" y="87" width="1" height="36" fill="#F2F2F2" />
<rect x="250" y="87" width="1" height="36" fill="#E8E8E8" />
<rect x="289" y="87" width="1" height="36" fill="#E8E8E8" />
<rect x="291" y="87" width="1" height="36" fill="#F2F2F2" />
<rect x="330" y="87" width="1" height="36" fill="#F2F2F2" />
<rect x="6" y="126" width="36" height="40" fill="#F2F2F2" />
<rect x="47" y="126" width="36" height="40" fill="#E8E8E8" />
<rect x="88" y="126" width="36" height="40" fill="#F2F2F2" />
<rect x="129" y="126" width="36" height="40" fill="#E8E8E8" />
<rect x="170" y="126" width="36" height="40" fill="#F2F2F2" />
<rect x="211" y="126" width="36" height="40" fill="#E8E8E8" />
<rect x="252" y="126" width="36" height="40" fill="#F2F2F2" />
<rect x="293" y="126" width="36" height="40" fill="#E8E8E8" />
<rect x="5" y="127" width="1" height="38" fill="#F2F2F2" />
<rect x="42" y="127" width="1" height="38" fill="#F2F2F2" />
<rect x="46" y="127" width="1" height="38" fill="#E8E8E8" />
<rect x="83" y="127" width="1" height="38" fill="#E8E8E8" />
<rect x="87" y="127" width="1" height="38" fill="#F2F2F2" />
<rect x="124" y="127" width="1" height="38" fill="#F2F2F2" />
<rect x="128" y="127" width="1" height="38" fill="#E8E8E8" />
<rect x="165" y="127" width="1" height="38" fill="#E8E8E8" />
<rect x="169" y="127" width="1" height="38" fill="#F2F2F2" />
<rect x="206" y="127" width="1" height="38" fill="#F2F2F2" />
<rect x="210" y="127" width="1" height="38" fill="#E8E8E8" />
<rect x="247" y="127" width="1" height="38" fill="#E8E8E8" />
<rect x="251" y="127" width="1" height="38" fill="#F2F2F2" />
<rect x="288" y="127" width="1" height="38" fill="#F2F2F2" />
<rect x="292" y="127" width="1" height="38" fill="#E8E8E8" />
<rect x="329" y="127" width="1" height="38" fill="#E8E8E8" />
<rect x="4" y="128" width="1" height="36" fill="#F2F2F2" />
<rect x="43" y="128" width="1" height="36" fill="#F2F2F2" />
<rect x="45" y="128" width="1" height="36" fill="#E8E8E8" />
<rect x="84" y="128" width="1" height="36" fill="#E8E8E8" />
<rect x="86" y="128" width="1" height="36" fill="#F2F2F2" />
<rect x="125" y="128" width="1" height="36" fill="#F2F2F2" />
<rect x="127" y="128" width="1" height="36" fill="#E8E8E8" />
<rect x="166" y="128" width="1" height="36" fill="#E8E8E8" />
<rect x="168" y="128" width="1" height="36" fill="#F2F2F2" />
<rect x="207" y="128" width="1" height="36" fill="#F2F2F2" />
<rect x="209" y="128" width="1" height="36" fill="#E8E8E8" />
<rect x="248" y="128" width="1" height="36" fill="#E8E8E8" />
<rect x="250" y="128" width="1" height="36" fill="#F2F2F2" />
<rect x="289" y="128" width="1" height="36" fill="#F2F2F2" />
<rect x="291" y="128" width="1" height="36" fill="#E8E8E8" />
<rect x="330" y="128" width="1" height="36" fill="#E8E8E8" />
<rect x="6" y="167" width="36" height="40" fill="#E8E8E8" />
<rect x="47" y="167" width="36" height="40" fill="#F2F2F2" />
<rect x="88" y="167" width="36" height="40" fill="#E8E8E8" />
<rect x="129" y="167" width="36" height="40" fill="#F2F2F2" />
<rect x="170" y="167" width="36" height="40" fill="#E8E8E8" />
<rect x="211" y="167" width="36" height="40" fill="#F2F2F2" />
<rect x="252" y="167" width="36" height="40" fill="#E8E8E8" />
<rect x="293" y="167" width="36" height="40" fill="#F2F2F2" />
<rect x="5" y="168" width="1" height="38" fill="#E8E8E8" />
<rect x="42" y="168" width="1" height="38" fill="#E8E8E8" />
<rect x="46" y="168" width="1" height="38" fill="#F2F2F2" />
<rect x="83" y="168" width="1" height="38" fill="#F2F2F2" />
<rect x="87" y="168" width="1" height="38" fill="#E8E8E8" />
<rect x="124" y="168" width="1" height="38" fill="#E8E8E8" />
<rect x="128" y="168" width="1" height="38" fill="#F2F2F2" />
<rect x="165" y="168" width="1" height="38" fill="#F2F2F2" />
<rect x="169" y="168" width="1" height="38" fill="#E8E8E8" />
<rect x="206" y="168" width="1" height="38" fill="#E8E8E8" />
<rect x="210" y="168" width="1" height="38" fill="#F2F2F2" />
<rect x="247" y="168" width="1" height="38" fill="#F2F2F2" />
<rect x="251" y="168" width="1" height="38" fill="#E8E8E8" />
<rect x="288" y="168" width="1" height="38" fill="#E8E8E8" />
<rect x="292" y="168" width="1" height="38" fill="#F2F2F2" />
<rect x="329" y="168" width="1" height="38" fill="#F2F2F2" />
<rect x="4" y="169" width="1" height="36" fill="#E8E8E8" />
<rect x="43" y="169" width="1" height="36" fill="#E8E8E8" />
<rect x="45" y="169" width="1" height="36" fill="#F2F2F2" />
<rect x="84" y="169" width="1" height="36" fill="#F2F2F2" />
<rect x="86" y="169" width="1" height="36" fill="#E8E8E8" />
<rect x="125" y="169" width="1" height="36" fill="#E8E8E8" />
<rect x="127" y="169" width="1" height="36" fill="#F2F2F2" />
<rect x="166" y="169" width="1" height="36" fill="#F2F2F2" />
<rect x="168" y="169" width="1" height="36" fill="#E8E8E8" />
<rect x="207" y="169" width="1" height="36" fill="#E8E8E8" />
<rect x="209" y="169" width="1" height="36" fill="#F2F2F2" />
<rect x="248" y="169" width="1" height="36" fill="#F2F2F2" />
<rect x="250" y="169" width="1" height="36" fill="#E8E8E8" />
<rect x="289" y="169" width="1" height="36" fill="#E8E8E8" />
<rect x="291" y="169" width="1" height="36" fill="#F2F2F2" />
<rect x="330" y="169" width="1" height="36" fill="#F2F2F2" />
<rect x="6" y="208" width="36" height="40" fill="#F2F2F2" />
<rect x="47" y="208" width="36" height="40" fill="#E8E8E8" />
<rect x="88" y="208" width="36" height="40" fill="#F2F2F2" />
<rect x="129" y="208" width="36" height="40" fill="#E8E8E8" />
<rect x="170" y="208" width="36" height="40" fill="#F2F2F2" />
<rect x="211" y="208" width="36" height="40" fill="#E8E8E8" />
<rect x="252" y="208" width="36" height="40" fill="#F2F2F2" />
<rect x="293" y="208" width="36" height="40" fill="#E8E8E8" />
<rect x="5" y="209" width="1" height="38" fill="#F2F2F2" />
<rect x="42" y="209" width="1" height="38" fill="#F2F2F2" />
<rect x="46" y="209" width="1" height="38" fill="#E8E8E8" />
<rect x="83" y="209" width="1" height="38" fill="#E8E8E8" />
<rect x="87" y="209" width="1" height="38" fill="#F2F2F2" />
<rect x="124" y="209" width="1" height="38" fill="#F2F2F2" />
<rect x="128" y="209" width="1" height="38" fill="#E8E8E8" />
<rect x="165" y="209" width="1" height="38" fill="#E8E8E8" />
<rect x="169" y="209" width="1" height="38" fill="#F2F2F2" />
<rect x="206" y="209" width="1" height="38" fill="#F2F2F2" />
<rect x="210" y="209" width="1" height="38" fill="#E8E8E8" />
<rect x="247" y="209" width="1" height="38" fill="#E8E8E8" />
<rect x="251" y="209" width="1" height="38" fill="#F2F2F2" />
<rect x="288" y="209" width="1" height="38" fill="#F2F2F2" />
<rect x="292" y="209" width="1" height="38" fill="#E8E8E8" />
<rect x="329" y="209" width="1" height="38" fill="#E8E8E8" />
<rect x="4" y="210" width="1" height="36" fill="#F2F2F2" />
<rect x="43" y="210" width="1" height="36" fill="#F2F2F2" />
<rect x="45" y="210" width="1" height="36" fill="#E8E8E8" />
<rect x="84" y="210" width="1" height="36" fill="#E8E8E8" />
<rect x="86" y="210" width="1" height="36" fill="#F2F2F2" />
<rect x="125" y="210" width="1" height="36" fill="#F2F2F2" />
<rect x="127" y="210" width="1" height="36" fill="#E8E8E8" />
<rect x="166" y="210" width="1" height="36" fill="#E8E8E8" />
<rect x="168" y="210" width="1" height="36" fill="#F2F2F2" />
<rect x="207" y="210" width="1" height="36" fill="#F2F2F2" />
<rect x="209" y="210" width="1" height="36" fill="#E8E8E8" />
<rect x="248" y="210" width="1" height="36" fill="#E8E8E8" />
<rect x="250" y="210" width="1" height="36" fill="#F2F2F2" />
<rect x="289" y="210" width="1" height="36" fill="#F2F2F2" />
<rect x="291" y="210" width="1" height="36" fill="#E8E8E8" />
<rect x="330" y="210" width="1" height="36" fill="#E8E8E8" />
<rect x="6" y="249" width="36" height="40" fill="#E8E8E8" />
<rect x="47" y="249" width="36" height="40" fill="#F2F2F2" />
<rect x="88" y="249" width="36" height="40" fill="#E8E8E8" />
<rect x="129" y="249" width="36" height="40" fill="#F2F2F2" />
<rect x="170" y="249" width="36" height="40" fill="#E8E8E8" />
<rect x="211" y="249" width="36" height="40" fill="#F2F2F2" />
<rect x="252" y="249" width="36" height="40" fill="#E8E8E8" />
<rect x="293" y="249" width="36" height="40" fill="#F2F2F2" />
<rect x="5" y="250" width="1" height="38" fill="#E8E8E8" />
<rect x="42" y="250" width="1" height="38" fill="#E8E8E8" />
<rect x="46" y="250" width="1" height="38" fill="#F2F2F2" />
<rect x="83" y="250" width="1" height="38" fill="#F2F2F2" />
<rect x="87" y="250" width="1" height="38" fill="#E8E8E8" />
<rect x="124" y="250" width="1" height="38" fill="#E8E8E8" />
<rect x="128" y="250" width="1" height="38" fill="#F2F2F2" />
<rect x="165" y="250" width="1" height="38" fill="#F2F2F2" />
<rect x="169" y="250" width="1" height="38" fill="#E8E8E8" />
<rect x="206" y="250" width="1" height="38" fill="#E8E8E8" />
<rect x="210" y="250" width="1" height="38" fill="#F2F2F2" />
<rect x="247" y="250" width="1" height="38" fill="#F2F2F2" />
<rect x="251" y="250" width="1" height="38" fill="#E8E8E8" />
<rect x="288" y="250" width="1" height="38" fill="#E8E8E8" />
<rect x="292" y="250" width="1" height="38" fill="#F2F2F2" />
<rect x="329" y="250" width="1" height="38" fill="#F2F2F2" />
<rect x="4" y="251" width="1" height="36" fill="#E8E8E8" />
<rect x="43" y="251" width="1" height="36" fill="#E8E8E8" />
<rect x="45" y="251" width="1" height="36" fill="#F2F2F2" />
<rect x="84" y="251" width="1" height="36" fill="#F2F2F2" />
<rect x="86" y="251" width="1" height="36" fill="#E8E8E8" />
<rect x="125" y="251" width="1" height="36" fill="#E8E8E8" />
<rect x="127" y="251" width="1" height="36" fill="#F2F2F2" />
<rect x="166" y="251" width="1" height="36" fill="#F2F2F2" />
<rect x="168" y="251" width="1" height="36" fill="#E8E8E8" />
<rect x="207" y="251" width="1" height="36" fill="#E8E8E8" />
<rect x="209" y="251" width="1" height="36" fill="#F2F2F2" />
<rect x="248" y="251" width="1" height="36" fill="#F2F2F2" />
<rect x="250" y="251" width="1" height="36" fill="#E8E8E8" />
<rect x="289" y="251" width="1" height="36" fill="#E8E8E8" />
<rect x="291" y="251" width="1" height="36" fill="#F2F2F2" />
<rect x="330" y="251" width="1" height="36" fill="#F2F2F2" />
<rect x="6" y="290" width="36" height="40" fill="#F2F2F2" />
<rect x="47" y="290" width="36" height="40" fill="#E8E8E8" />
<rect x="88" y="290" width="36" height="40" fill="#F2F2F2" />
<rect x="129" y="290" width="36" height="40" fill="#E8E8E8" />
<rect x="170" y="290" width="36" height="40" fill="#F2F2F2" />
<rect x="211" y="290" width="36" height="40" fill="#E8E8E8" />
<rect x="252" y="290" width="36" height="40" fill="#F2F2F2" />
<rect x="293" y="290" width="36" height="40" fill="#E8E8E8" />
<rect x="5" y="291" width="1" height="38" fill="#F2F2F2" />
<rect x="42" y="291" width="1" height="38" fill="#F2F2F2" />
<rect x="46" y="291" width="1" height="38" fill="#E8E8E8" />
<rect x="83" y="291" width="1" height="38" fill="#E8E8E8" />
<rect x="87" y="291" width="1" height="38" fill="#F2F2F2" />
<rect x="124" y="291" width="1" height="38" fill="#F2F2F2" />
<rect x="128" y="291" width="1" height="38" fill="#E8E8E8" />
<rect x="165" y="291" width="1" height="38" fill="#E8E8E8" />
<rect x="169" y="291" width="1" height="38" fill="#F2F2F2" />
<rect x="206" y="291" width="1" height="38" fill="#F2F2F2" />
<rect x="210" y="291" width="1" height="38" fill="#E8E8E8" />
<rect x="247" y="291" width="1" height="38" fill="#E8E8E8" />
<rect x="251" y="291" width="1" height="38" fill="#F2F2F2" />
<rect x="288" y="291" width="1" height="38" fill="#F2F2F2" />
<rect x="292" y="291" width="1" height="38" fill="#E8E8E8" />
<rect x="329" y="291" width="1" height="38" fill="#E8E8E8" />
<rect x="4" y="292" width="1" height="36" fill="#F2F2F2" />
<rect x="43" y="292" width="1" height="36" fill="#F2F2F2" />
<rect x="45" y="292" width="1" height="36" fill="#E8E8E8" />
<rect x="84" y="292" width="1" height="36" fill="#E8E8E8" />
<rect x="86" y="292" width="1" height="36" fill="#F2F2F2" />
<rect x="125" y="292" width="1" height="36" fill="#F2F2F2" />
<rect x="127" y="292" width="1" height="36" fill="#E8E8E8" />
<rect x="166" y="292" width="1" height="36" fill="#E8E8E8" />
<rect x="168" y="292" width="1" height="36" fill="#F2F2F2" />
<rect x="207" y="292" width="1" height="36" fill="#F2F2F2" />
<rect x="209" y="292" width="1" height="36" fill="#E8E8E8" />
<rect x="248" y="292" width="1" height="36" fill="#E8E8E8" />
<rect x="250" y="292" width="1" height="36" fill="#F2F2F2" />
<rect x="289" y="292" width="1" height="36" fill="#F2F2F2" />
<rect x="291" y="292" width="1" height="36" fill="#E8E8E8" />
<rect x="330" y="292" width="1" height="36" fill="#E8E8E8" />
<rect x="6" y="331" width="36" height="40" fill="#E8E8E8" />
<rect x="47" y="331" width="36" height="40" fill="#F2F2F2" />
<rect x="88" y="331" width="36" height="40" fill="#E8E8E8" />
<rect x="129" y="331" width="36" height="40" fill="#F2F2F2" />
<rect x="170" y="331" width="36" height="40" fill="#E8E8E8" />
<rect x="211" y="331" width="36" height="40" fill="#F2F2F2" />
<rect x="252" y="331" width="36" height="40" fill="#E8E8E8" />
<rect x="293" y="331" width="36" height="40" fill="#F2F2F2" />
<rect x="5" y="332" width="1" height="38" fill="#E8E8E8" />
<rect x="42" y="332" width="1" height="38" fill="#E8E8E8" />
<rect x="46" y="332" width="1" height="38" fill="#F2F2F2" />
<rect x="83" y="332" width="1" height="38" fill="#F2F2F2" />
<rect x="87" y="332" width="1" height="38" fill="#E8E8E8" />
<rect x="124" y="332" width="1" height="38" fill="#E8E8E8" />
<rect x="128" y="332" width="1" height="38" fill="#F2F2F2" />
<rect x="165" y="332" width="1" height="38" fill="#F2F2F2" />
<rect x="169" y="332" width="1" height="38" fill="#E8E8E8" />
<rect x="206" y="332" width="1" height="38" fill="#E8E8E8" />
<rect x="210" y="332" width="1" height="38" fill="#F2F2F2" />
<rect x="247" y="332" width="1" height="38" fill="#F2F2F2" />
<rect x="251" y="332" width="1" height="38" fill="#E8E8E8" />
<rect x="288" y="332" width="1" height="38" fill="#E8E8E8" />
<rect x="292" y="332" width="1" height="38" fill="#F2F2F2" />
<rect x="329" y="332" width="1" height="38" fill="#F2F2F2" />
<rect x="4" y="333" width="1" height="36" fill="#E8E8E8" />
<rect x="43" y="333" width="1" height="36" fill="#E8E8E8" />
<rect x="45" y="333" width="1" height="36" fill="#F2F2F2" />
<rect x="84" y="333" width="1" height="36" fill="#F2F2F2" />
<rect x="86" y="333" width="1" height="36" fill="#E8E8E8" />
<rect x="125" y="333" width="1" height="36" fill="#E8E8E8" />
<rect x="127" y="333" width="1" height="36" fill="#F2F2F2" />
<rect x="166" y="333" width="1" height="36" fill="#F2F2F2" />
<rect x="168" y="333" width="1" height="36" fill="#E8E8E8" />
<rect x="207" y="333" width="1" height="36" fill="#E8E8E8" />
<rect x="209" y="333" width="1" height="36" fill="#F2F2F2" />
<rect x="248" y="333" width="1" height="36" fill="#F2F2F2" />
<rect x="250" y="333" width="1" height="36" fill="#E8E8E8" />
<rect x="289" y="333" width="1" height="36" fill="#E8E8E8" />
<rect x="291" y="333" width="1" height="36" fill="#F2F2F2" />
<rect x="330" y="333" width="1" height="36" fill="#F2F2F2" />
<rect x="6" y="372" width="36" height="40" fill="#F2F2F2" />
<rect x="47" y="372" width="36" height="40" fill="#E8E8E8" />
<rect x="88" y="372" width="36" height="40" fill="#F2F2F2" />
<rect x="129" y="372" width="36" height="40" fill="#E8E8E8" />
<rect x="170" y="372" width="36" height="40" fill="#F2F2F2" />
<rect x="211" y="372" width="36" height="40" fill="#E8E8E8" />
<rect x="252" y="372" width="36" height="40" fill="#F2F2F2" />
<rect x="293" y="372" width="36" height="40" fill="#E8E8E8" />
<rect x="5" y="373" width="1" height="38" fill="#F2F2F2" />
<rect x="42" y="373" width="1" height="38" fill="#F2F2F2" />
<rect x="46" y="373" width="1" height="38" fill="#E8E8E8" />
<rect x="83" y="373" width="1" height="38" fill="#E8E8E8" />
<rect x="87" y="373" width="1" height="38" fill="#F2F2F2" />
<rect x="124" y="373" width="1" height="38" fill="#F2F2F2" />
<rect x="128" y="373" width="1" height="38" fill="#E8E8E8" />
<rect x="165" y="373" width="1" height="38" fill="#E8E8E8" />
<rect x="169" y="373" width="1" height="38" fill="#F2F2F2" />
<rect x="206" y="373" width="1" height="38" fill="#F2F2F2" />
<rect x="210" y="373" width="1" height="38" fill="#E8E8E8" />
<rect x="247" y="373" width="1" height="38" fill="#E8E8E8" />
<rect x="251" y="373" width="1" height="38" fill="#F2F2F2" />
<rect x="288" y="373" width="1" height="38" fill="#F2F2F2" />
<rect x="292" y="373" width="1" height="38" fill="#E8E8E8" />
<rect x="329" y="373" width="1" height="38" fill="#E8E8E8" />
<rect x="4" y="374" width="1" height="36" fill="#F2F2F2" />
<rect x="43" y="374" width="1" height="36" fill="#F2F2F2" />
<rect x="45" y="374" width="1" height="36" fill="#E8E8E8" />
<rect x="84" y="374" width="1" height="36" fill="#E8E8E8" />
<rect x="86" y="374" width="1" height="36" fill="#F2F2F2" />
<rect x="125" y="374" width="1" height="36" fill="#F2F2F2" />
<rect x="127" y="374" width="1" height="36" fill="#E8E8E8" />
<rect x="166" y="374" width="1" height="36" fill="#E8E8E8" />
<rect x="168" y="374" width="1" height="36" fill="#F2F2F2" />
<rect x="207" y="374" width="1" height="36" fill="#F2F2F2" />
<rect x="209" y="374" width="1" height="36" fill="#E8E8E8" />
<rect x="248" y="374" width="1" height="36" fill="#E8E8E8" />
<rect x="250" y="374" width="1" height="36" fill="#F2F2F2" />
<rect x="289" y="374" width="1" height="36" fill="#F2F2F2" />
<rect x="291" y="374" width="1" height="36" fill="#E8E8E8" />
<rect x="330" y="374" width="1" height="36" fill="#E8E8E8" />
<rect x="6" y="413" width="36" height="40" fill="#E8E8E8" />
<rect x="47" y="413" width="36" height="40" fill="#F2F2F2" />
<rect x="88" y="413" width="36" height="40" fill="#E8E8E8" />
<rect x="129" y="413" width="36" height="40" fill="#F2F2F2" />
<rect x="170" y="413" width="36" height="40" fill="#E8E8E8" />
<rect x="211" y="413" width="36" height="40" fill="#F2F2F2" />
<rect x="252" y="413" width="36" height="40" fill="#E8E8E8" />
<rect x="293" y="413" width="36" height="40" fill="#F2F2F2" />
<rect x="5" y="414" width="1" height="38" fill="#E8E8E8" />
<rect x="42" y="414" width="1" height="38" fill="#E8E8E8" />
<rect x="46" y="414" width="1" height="38" fill="#F2F2F2" />
<rect x="83" y="414" width="1" height="38" fill="#F2F2F2" />
<rect x="87" y="414" width="1" height="38" fill="#E8E8E8" />
<rect x="124" y="414" width="1" height="38" fill="#E8E8E8" />
<rect x="128" y="414" width="1" height="38" fill="#F2F2F2" />
<rect x="165" y="414" width="1" height="38" fill="#F2F2F2" />
<rect x="169" y="414" width="1" height="38" fill="#E8E8E8" />
<rect x="206" y="414" width="1" height="38" fill="#E8E8E8" />
<rect x="210" y="414" width="1" height="38" fill="#F2F2F2" />
<rect x="247" y="414" width="1" height="38" fill="#F2F2F2" />
<rect x="251" y="414" width="1" height="38" fill="#E8E8E8" />
<rect x="288" y="414" width="1" height="38" fill="#E8E8E8" />
<rect x="292" y="414" width="1" height="38" fill="#F2F2F2" />
<rect x="329" y="414" width="1" height="38" fill="#F2F2F2" />
<rect x="4" y="415" width="1" height="36" fill="#E8E8E8" />
<rect x="43" y="415" width="1" height="36" fill="#E8E8E8" />
<rect x="45" y="415" width="1" height="36" fill="#F2F2F2" />
<rect x="84" y="415" width="1" height="36" fill="#F2F2F2" />
<rect x="86" y="415" width="1" height="36" fill="#E8E8E8" />
<rect x="125" y="415" width="1" height="36" fill="#E8E8E8" />
<rect x="127" y="415" width="1" height="36" fill="#F2F2F2" />
<rect x="166" y="415" width="1" height="36" fill="#F2F2F2" />
<rect x="168" y="415" width="1" height="36" fill="#E8E8E8" />
<rect x="207" y="415" width="1" height="36" fill="#E8E8E8" />
<rect x="209" y="415" width="1" height="36" fill="#F2F2F2" />
<rect x="248" y="415" width="1" height="36" fill="#F2F2F2" />
<rect x="250" y="415" width="1" height="36" fill="#E8E8E8" />
<rect x="289" y="415" width="1" height="36" fill="#E8E8E8" />
<rect x="291" y="415" width="1" height="36" fill="#F2F2F2" />
<rect x="330" y="415" width="1" height="36" fill="#F2F2F2" />
<rect x="6" y="454" width="36" height="40" fill="#F2F2F2" />
<rect x="47" y="454" width="36" height="40" fill="#E8E8E8" />
<rect x="88" y="454" width="36" height="40" fill="#F2F2F2" />
<rect x="129" y="454" width="36" height="40" fill="#E8E8E8" />
<rect x="170" y="454" width="36" height="40" fill="#F2F2F2" />
<rect x="211" y="454" width="36" height="40" fill="#E8E8E8" />
<rect x="252" y="454" width="36" height="40" fill="#F2F2F2" />
<rect x="293" y="454" width="36" height="40" fill="#E8E8E8" />
<rect x="5" y="455" width="1" height="38" fill="#F2F2F2" />
<rect x="42" y="455" width="1" height="38" fill="#F2F2F2" />
<rect x="46" y="455" width="1" height="38" fill="#E8E8E8" />
<rect x="83" y="455" width="1" height="38" fill="#E8E8E8" />
<rect x="87" y="455" width="1" height="38" fill="#F2F2F2" />
<rect x="124" y="455" width="1" height="38" fill="#F2F2F2" />
<rect x="128" y="455" width="1" height="38" fill="#E8E8E8" />
<rect x="165" y="455" width="1" height="38" fill="#E8E8E8" />
<rect x="169" y="455" width="1" height="38" fill="#F2F2F2" />
<rect x="206" y="455" width="1" height="38" fill="#F2F2F2" />
<rect x="210" y="455" width="1" height="38" fill="#E8E8E8" />
<rect x="247" y="455" width="1" height="38" fill="#E8E8E8" />
<rect x="251" y="455" width="1" height="38" fill="#F2F2F2" />
<rect x="288" y="455" width="1" height="38" fill="#F2F2F2" />
<rect x="292" y="455" width="1" height="38" fill="#E8E8E8" />
<rect x="329" y="455" width="1" height="38" fill="#E8E8E8" />
<rect x="4" y="456" width="1" height="36" fill="#F2F2F2" />
<rect x="43" y="456" width="1" height="36" fill="#F2F2F2" />
<rect x="45" y="456" width="1" height="36" fill="#E8E8E8" />
<rect x="84" y="456" width="1" height="36" fill="#E8E8E8" />
<rect x="86" y="456" width="1" height="36" fill="#F2F2F2" />
<rect x="125" y="456" width="1" height="36" fill="#F2F2F2" />
<rect x="127" y="456" width="1" height="36" fill="#E8E8E8" />
<rect x="166" y="456" width="1" height="36" fill="#E8E8E8" />
<rect x="168" y="456" width="1" height="36" fill="#F2F2F2" />
<rect x="207" y="456" width="1" height="36" fill="#F2F2F2" />
<rect x="209" y="456" width="1" height="36" fill="#E8E8E8" />
<rect x="248" y="456" width="1" height="36" fill="#E8E8E8" />
<rect x="250" y="456" width="1" height="36" fill="#F2F2F2" />
<rect x="289" y="456" width="1" height="36" fill="#F2F2F2" />
<rect x="291" y="456" width="1" height="36" fill="#E8E8E8" />
<rect x="330" y="456" width="1" height="36" fill="#E8E8E8" />
</svg>